screens;
 
http://baypic.net/img-51758ede1d17c.html 
 
http://baypic.net/img-51758ee104601.html 
 
http://baypic.net/img-51758ee3d23c4.html 

Format                                   : Windows Media
File size                                : 1.49 GiB
Duration                                 : 50mn 56s
Overall bit rate mode                    : Constant
Overall bit rate                         : 4 194 Kbps
Maximum Overall bit rate                 : 4 229 Kbps
Encoded date                             : UTC 2013-04-21 14:48:14.732
SfOriginalFPS                            : 299700

Video
ID                                       : 2
Format                                   : VC-1
Format profile                           : MP@HL
Codec ID                                 : WMV3
Codec ID/Info                            : Windows Media Video 9
Codec ID/Hint                            : WMV3
Description of the codec                 : Windows Media Video 9 - Professional
Duration                                 : 50mn 56s
Bit rate mode                            : Constant
Bit rate                                 : 4 098 Kbps
Width                                    : 1 280 pixels
Height                                   : 720 pixels
Display aspect ratio                     : 16:9
Frame rate                               : 29.970 fps
Bit depth                                : 8 bits
Scan type                                : Progressive
Compression mode                         : Lossy
Bits/(Pixel*Frame)                       : 0.148
Stream size                              : 1.46 GiB (98%)
Language                                 : English (US)

Audio
ID                                       : 1
Format                                   : WMA
Format version                           : Version 2
Codec ID                                 : 161
Codec ID/Info                            : Windows Media Audio
Description of the codec                 : Windows Media Audio 9.2 -  96 kbps, 44 kHz, stereo (A/V) 1-pass CBR
Duration                                 : 50mn 56s
Bit rate mode                            : Constant
Bit rate                                 : 96.0 Kbps
Channel(s)                               : 2 channels
Sampling rate                            : 44.1 KHz
Bit depth                                : 16 bits
Stream size                              : 35.0 MiB (2%)
Language                                 : English (US)
